<svg id="Layer_1" data-name="Layer 1" xmlns="http://www.w3.org/2000/svg" xmlns:xlink="http://www.w3.org/1999/xlink" viewBox="0 0 1050.97 727.62"><defs><style>.cls-1{fill:gray;}.cls-2{fill:#ccc;}.cls-3,.cls-4,.cls-6{fill:none;}.cls-3{stroke:#000;stroke-miterlimit:10;}.cls-10,.cls-11,.cls-12,.cls-13,.cls-5,.cls-6,.cls-7{isolation:isolate;}.cls-5{font-size:28px;}.cls-11,.cls-12,.cls-13,.cls-5,.cls-7{font-family:Cambria;}.cls-7{font-size:26px;}.cls-8{letter-spacing:-1px;}.cls-9{letter-spacing:-2px;}.cls-11,.cls-12,.cls-13{font-size:15px;}.cls-11,.cls-14{white-space:pre;}.cls-12{letter-spacing:31px;}</style><image id="image" width="400" height="400" xlink:href="Tennis-Ball-Transparent.png"/></defs><title>IntroVis</title><polygon class="cls-1" points="905.3 423.5 418.7 423.5 546.3 200.5 777.7 200.5 905.3 423.5"/><polygon class="cls-2" points="532 223.8 663.8 4.2 793.7 225.8 532 223.8"/><polygon class="cls-2" points="1050.1 672.2 275.1 672.2 418.7 423.5 906.5 423.5 1050.1 672.2"/><polygon class="cls-3" points="662.6 1 1050.1 672.2 275.1 672.2 662.6 1"/><line class="cls-4" x1="418.7" y1="423.5" x2="906.5" y2="423.5"/><line class="cls-4" x1="546.9" y1="201.5" x2="778.8" y2="202.4"/><text class="cls-5" transform="translate(630.68 218.89)">Finals</text><text class="cls-5" transform="translate(597.41 412.84)">Semifinals</text><text class="cls-5" transform="translate(586.21 658.63)">Quar<tspan x="59.01" y="0">t</tspan><tspan x="68.24" y="0">erfinals</tspan></text><use transform="translate(616.67 49.08) scale(0.23)" xlink:href="#image"/><path class="cls-6" transform="translate(-13 -39.3)"/><use transform="translate(525.67 283.55) scale(0.23)" xlink:href="#image"/><path class="cls-6" transform="translate(-13 -39.3)"/><use transform="translate(744.53 283.55) scale(0.23)" xlink:href="#image"/><path class="cls-6" transform="translate(-13 -39.3)"/><use transform="translate(385.52 519.13) scale(0.23)" xlink:href="#image"/><path class="cls-6" transform="translate(-13 -39.3)"/><use transform="translate(555.22 519.13) scale(0.23)" xlink:href="#image"/><path class="cls-6" transform="translate(-13 -39.3)"/><use transform="translate(722.03 519.13) scale(0.23)" xlink:href="#image"/><path class="cls-6" transform="translate(-13 -39.3)"/><use transform="translate(873.33 519.13) scale(0.23)" xlink:href="#image"/><path class="cls-6" transform="translate(-13 -39.3)"/><image width="180" height="120" transform="translate(63 1) scale(1.39)" xlink:href="us-open-logo-vector-image.png"/><path class="cls-6" transform="translate(-13 -39.3)"/><text class="cls-7" transform="translate(0 179.7)">2013 <tspan class="cls-8" x="63.31" y="0">W</tspan><tspan x="85.74" y="0">ome</tspan><tspan x="133.86" y="0">n</tspan><tspan x="147.61" y="0">’s </tspan><tspan class="cls-9" x="170.26" y="0">T</tspan><tspan x="183.56" y="0">ennis </tspan><tspan class="cls-9" x="249.39" y="0">T</tspan><tspan x="262.69" y="0">ournament</tspan></text><g class="cls-10"><text class="cls-11" transform="translate(709.03 591.7)">  S Williams </text><text class="cls-12" transform="translate(709.03 609.7)"> </text><text class="cls-13" transform="translate(745.03 609.7)">v<tspan x="7.4" y="0">s.</tspan></text><text class="cls-13" transform="translate(709.03 627.7)"><tspan class="cls-14"> V Aza</tspan><tspan x="39.15" y="0">r</tspan><tspan x="45.13" y="0">en</tspan><tspan x="60.82" y="0">k</tspan><tspan x="68.58" y="0">a</tspan></text></g><g class="cls-10"><text class="cls-11" transform="translate(372.53 591.7)">  S Williams </text><text class="cls-12" transform="translate(372.53 609.7)"> </text><text class="cls-13" transform="translate(408.53 609.7)">v<tspan x="7.4" y="0">s.</tspan></text><text class="cls-13" transform="translate(372.53 627.7)"><tspan class="cls-14"> V Aza</tspan><tspan x="39.15" y="0">r</tspan><tspan x="45.13" y="0">en</tspan><tspan x="60.82" y="0">k</tspan><tspan x="68.58" y="0">a</tspan></text></g><g class="cls-10"><text class="cls-11" transform="translate(542.23 591.7)">  S Williams </text><text class="cls-12" transform="translate(542.23 609.7)"> </text><text class="cls-13" transform="translate(578.23 609.7)">v<tspan x="7.4" y="0">s.</tspan></text><text class="cls-13" transform="translate(542.23 627.7)"><tspan class="cls-14"> V Aza</tspan><tspan x="39.15" y="0">r</tspan><tspan x="45.13" y="0">en</tspan><tspan x="60.82" y="0">k</tspan><tspan x="68.58" y="0">a</tspan></text></g><g class="cls-10"><text class="cls-11" transform="translate(871.21 591.7)">  S Williams </text><text class="cls-12" transform="translate(871.21 609.7)"> </text><text class="cls-13" transform="translate(907.21 609.7)">v<tspan x="7.4" y="0">s.</tspan></text><text class="cls-13" transform="translate(871.21 627.7)"><tspan class="cls-14"> V Aza</tspan><tspan x="39.15" y="0">r</tspan><tspan x="45.13" y="0">en</tspan><tspan x="60.82" y="0">k</tspan><tspan x="68.58" y="0">a</tspan></text></g><g class="cls-10"><text class="cls-11" transform="translate(512.68 351.7)">  S Williams </text><text class="cls-12" transform="translate(512.68 369.7)"> </text><text class="cls-13" transform="translate(548.68 369.7)">v<tspan x="7.4" y="0">s.</tspan></text><text class="cls-13" transform="translate(512.68 387.7)"><tspan class="cls-14"> V Aza</tspan><tspan x="39.15" y="0">r</tspan><tspan x="45.13" y="0">en</tspan><tspan x="60.82" y="0">k</tspan><tspan x="68.58" y="0">a</tspan></text></g><g class="cls-10"><text class="cls-11" transform="translate(743.21 351.7)">  S Williams </text><text class="cls-12" transform="translate(743.21 369.7)"> </text><text class="cls-13" transform="translate(779.21 369.7)">v<tspan x="7.4" y="0">s.</tspan></text><text class="cls-13" transform="translate(743.21 387.7)"><tspan class="cls-14"> V Aza</tspan><tspan x="39.15" y="0">r</tspan><tspan x="45.13" y="0">en</tspan><tspan x="60.82" y="0">k</tspan><tspan x="68.58" y="0">a</tspan></text></g><g class="cls-10"><text class="cls-11" transform="translate(621.21 155.7)">  S Williams </text><text class="cls-12" transform="translate(621.21 173.7)"> </text><text class="cls-13" transform="translate(657.21 173.7)">v<tspan x="7.4" y="0">s.</tspan></text><text class="cls-13" transform="translate(621.21 191.7)"><tspan class="cls-14"> V Aza</tspan><tspan x="39.15" y="0">r</tspan><tspan x="45.13" y="0">en</tspan><tspan x="60.82" y="0">k</tspan><tspan x="68.58" y="0">a</tspan></text></g></svg>